<svg width="257" height="262" viewBox="0 0 257 262" fill="none" xmlns="http://www.w3.org/2000/svg">
<path d="M172.299 0.575256C172.299 4.32094 175.335 7.35725 179.081 7.35748C182.71 7.35748 185.674 4.5077 185.855 0.923889L185.864 0.575256H249.081C249.081 4.32102 252.118 7.35738 255.863 7.35748C256.045 7.35748 256.226 7.34716 256.404 7.33307V254.979C256.226 254.964 256.045 254.955 255.863 254.955C252.118 254.955 249.081 257.992 249.081 261.737H7.07227C7.07217 258.109 4.22239 255.145 0.638672 254.964L0.290039 254.955V7.35748C3.91891 7.35745 6.88202 4.50767 7.06348 0.923889L7.07227 0.575256H172.299Z" fill="#FAF7EF"/>
</svg>
