<svg width="257" height="80" viewBox="0 0 257 80" fill="none" xmlns="http://www.w3.org/2000/svg">
<path d="M172.299 0.826111C172.299 4.57179 175.335 7.60811 179.081 7.60834L179.082 7.60736V7.60834C182.711 7.60811 185.674 4.7584 185.855 1.17474L185.864 0.826111H249.081C249.081 4.57187 252.118 7.60824 255.863 7.60834C256.045 7.60832 256.226 7.598 256.404 7.58392V73.081C256.226 73.0669 256.045 73.0585 255.863 73.0585C252.118 73.0586 249.081 76.095 249.081 79.8408H185.864C185.864 76.212 183.014 73.249 179.431 73.0673L179.082 73.0585H179.081C175.335 73.0588 172.299 76.0951 172.299 79.8408H7.07227C7.07227 76.212 4.22227 73.249 0.638672 73.0673L0.290039 73.0585V7.60834C3.91874 7.60811 6.88202 4.7584 7.06348 1.17474L7.07227 0.826111H172.299Z" fill="#FAF7EF"/>
<path d="M179.394 7.18628L179.394 73.1299" stroke="black" stroke-dasharray="1.5 1.5"/>
</svg>
