<svg width="107" height="34" viewBox="0 0 107 34"  xmlns="http://www.w3.org/2000/svg">
<path d="M70.8438 1.15918C71.0821 2.59314 72.3275 3.68652 73.8291 3.68652C75.3303 3.68624 76.576 2.59304 76.8145 1.15918H103.645C103.856 2.43039 104.859 3.43216 106.13 3.64355V30.707C104.859 30.9184 103.856 31.9213 103.645 33.1924H76.8145C76.5842 31.8087 75.4161 30.7419 73.9854 30.6689L73.8291 30.665C72.3276 30.665 71.0823 31.7586 70.8438 33.1924H3.48242C3.27081 31.9211 2.26732 30.9184 0.996094 30.707V3.64355C2.26731 3.43218 3.27094 2.43054 3.48242 1.15918H70.8438Z" />
</svg>
