<svg width="141" height="45" viewBox="0 0 141 45" fill="none" xmlns="http://www.w3.org/2000/svg">
<path d="M93.4287 1.15918C93.6654 2.97618 95.1732 4.39392 97.0312 4.48828L97.2285 4.49316H97.2295C99.1767 4.49256 100.784 3.03991 101.029 1.15918H136.695C136.919 2.87652 138.279 4.23521 139.996 4.45898V40.4326C138.279 40.6564 136.919 42.016 136.695 43.7334H101.029C100.792 41.9163 99.2839 40.4986 97.4258 40.4043L97.2295 40.3994H97.2285C95.2808 40.3996 93.6738 41.8525 93.4287 43.7334H4.29785C4.07394 42.0159 2.7135 40.6564 0.996094 40.4326V4.45898C2.71342 4.23523 4.07395 2.87666 4.29785 1.15918H93.4287Z" fill="#D9D9D9" stroke="black"/>
<path d="M97.1564 4.81488V40.0772" stroke="black" stroke-dasharray="4 4"/>
</svg>
