<svg width="899" height="355" viewBox="0 0 899 355" fill="none" xmlns="http://www.w3.org/2000/svg">
<path d="M106.455 2.46189H48.6539C0.388168 -2.18568 3.33543 30.1625 3.33543 33.4557C3.33543 36.749 -3.15486e-08 146.892 0 172.231C3.15486e-08 197.571 2.61299 204.517 3.91156 213.563C5.18234 222.416 1.87806 252.744 1.87806 305.363C1.87806 357.983 18.5762 350.394 28.6954 353.296C36.7908 355.618 461.486 354.264 672.822 353.296C735.992 355.016 866.527 356.67 883.309 349.529C904.286 340.602 894.568 269.637 897.591 245.089C900.615 220.541 897.215 141.921 894.568 134.735C891.92 127.548 894.568 46.9827 894.568 23.5316C894.568 0.424166 873.268 0.45337 869.025 0.459188L868.847 0.459355C865.065 0.459355 742.892 2.46189 736.462 2.46189H480.42H225.907H106.455Z" fill="#D9D9D9"/>
</svg>
